<?xml version="1.0" standalone="no"?>
<!DOCTYPE svg PUBLIC "-//W3C//DTD SVG 20010904//EN"
 "http://www.w3.org/TR/2001/REC-SVG-20010904/DTD/svg10.dtd">
<svg version="1.0" xmlns="http://www.w3.org/2000/svg"
 width="2154.000000pt" height="2269.000000pt" viewBox="0 0 2154.000000 2269.000000"
 preserveAspectRatio="xMidYMid meet">

<g transform="translate(0.000000,2269.000000) scale(0.100000,-0.100000)"
fill="#000000" stroke="none">
<path d="M0 11345 l0 -11345 10770 0 10770 0 0 11345 0 11345 -10770 0 -10770
0 0 -11345z m11353 10058 c108 -34 21 105 1652 -2667 828 -1407 1512 -2575
1520 -2594 82 -196 -13 -441 -209 -538 -131 -64 -38 -75 -1611 185 -1361 225
-1402 233 -1472 267 -261 126 -294 480 -61 659 24 18 210 108 413 199 204 92
394 183 423 203 176 121 272 359 231 577 -6 32 -301 794 -656 1694 -588 1492
-646 1643 -650 1707 -9 123 54 238 159 291 89 45 159 50 261 17z m-1108 -54
c119 -22 245 -111 294 -208 26 -49 977 -2614 997 -2686 37 -135 -12 -288 -124
-392 -15 -13 -56 -39 -92 -56 -59 -29 -73 -32 -160 -32 -71 0 -108 5 -145 20
-27 10 -199 129 -383 262 -184 133 -358 254 -386 268 -196 95 -436 66 -612
-72 -31 -26 -445 -533 -1159 -1423 -1151 -1434 -1142 -1424 -1235 -1450 -153
-43 -325 41 -379 185 -24 64 -27 160 -7 216 7 19 676 1196 1487 2615 1612
2820 1516 2662 1643 2720 92 42 164 51 261 33z m-580 -3798 c119 -59 204 -177
220 -308 4 -30 -9 -192 -34 -427 -23 -208 -41 -412 -41 -453 0 -257 174 -481
425 -547 33 -9 832 -136 1775 -282 1394 -215 1725 -269 1766 -288 155 -71 225
-263 151 -418 -49 -100 -145 -166 -256 -174 -117 -10 -5941 -21 -5987 -13
-129 24 -246 115 -306 236 -32 65 -33 72 -33 183 0 110 1 118 32 180 24 48
271 351 940 1155 500 599 927 1104 951 1122 105 80 274 94 397 34z m-1446
-4422 c76 -12 181 -45 199 -63 10 -10 8 -28 -14 -97 -14 -46 -27 -85 -28 -86
-1 -1 -34 9 -73 22 -139 49 -344 51 -467 5 -198 -75 -307 -233 -322 -469 -14
-213 66 -406 208 -501 94 -63 179 -85 323 -84 66 0 139 6 163 13 l42 12 0 194
0 195 -145 0 -146 0 3 93 3 92 250 0 250 0 3 -357 2 -357 -77 -25 c-137 -43
-269 -59 -422 -53 -77 3 -162 13 -196 22 -257 71 -426 255 -481 525 -25 127
-16 328 20 435 71 210 223 369 424 442 37 14 96 31 132 38 80 16 263 18 349 4z
m4682 -32 c66 -44 77 -151 20 -208 -82 -81 -231 -22 -231 93 0 111 120 177
211 115z m-3598 -376 c167 -65 273 -257 265 -481 l-3 -85 -354 -3 -354 -2 7
-46 c25 -187 175 -280 409 -254 47 6 112 20 143 31 30 12 57 19 59 17 2 -1 12
-40 23 -86 l19 -83 -35 -14 c-118 -50 -355 -71 -469 -42 -97 25 -172 68 -236
136 -93 97 -137 218 -137 376 1 184 55 329 163 433 105 101 195 134 347 128
68 -2 111 -9 153 -25z m1019 18 c278 -58 439 -345 372 -666 -52 -253 -250
-413 -510 -413 -243 0 -428 146 -489 385 -33 131 -10 331 52 448 60 113 189
212 316 243 66 16 191 17 259 3z m1108 -99 l0 -110 -71 0 c-85 0 -126 -17
-174 -72 -65 -77 -68 -97 -73 -455 l-3 -323 -110 0 -109 0 0 418 c0 231 -3
467 -7 525 l-6 107 100 0 101 0 6 -62 7 -63 58 56 c67 66 119 87 214 88 l67 1
0 -110z m701 78 c30 -14 71 -39 91 -57 l36 -31 7 50 7 50 97 0 97 0 -3 -377
c-5 -619 -8 -699 -30 -774 -11 -37 -31 -86 -45 -111 -33 -54 -112 -129 -167
-158 -113 -57 -296 -75 -449 -44 -91 18 -206 68 -200 86 3 7 15 45 28 83 12
39 26 73 30 78 3 4 26 -4 51 -17 74 -41 162 -58 274 -54 77 3 109 9 140 25 88
47 134 128 143 256 l5 80 -52 -41 c-136 -108 -361 -108 -502 -2 -132 99 -199
246 -199 436 0 226 104 420 270 504 83 42 121 50 226 46 71 -2 103 -8 145 -28z
m1604 -2 c95 -43 154 -109 191 -211 15 -43 19 -101 25 -400 4 -192 10 -367 14
-387 l8 -38 -106 0 -106 0 -7 51 -7 50 -26 -25 c-100 -95 -307 -125 -434 -62
-60 29 -104 73 -139 139 -19 35 -23 58 -23 137 0 84 3 102 28 152 67 136 239
220 479 235 l98 6 -6 41 c-17 112 -85 166 -210 166 -78 0 -176 -26 -233 -60
-18 -12 -35 -19 -37 -17 -7 7 -54 138 -54 151 0 17 116 71 195 90 41 11 97 15
175 13 101 -3 122 -6 175 -31z m-805 -511 l0 -525 -110 0 -110 0 0 525 0 525
110 0 110 0 0 -525z m-6032 -1520 c1 -16 -29 -173 -67 -347 -78 -354 -96 -402
-183 -484 -27 -25 -79 -60 -116 -77 l-67 -32 -1108 -3 c-867 -2 -1109 -5
-1112 -15 -4 -10 -255 -1216 -255 -1224 0 -2 515 -3 1145 -3 l1145 0 0 -26 c0
-57 -142 -658 -167 -708 -37 -74 -80 -122 -146 -167 -118 -78 -41 -73 -1176
-79 l-1014 -5 -222 -1063 c-123 -584 -228 -1076 -235 -1092 l-12 -30 -554 0
-554 0 0 38 c0 46 1002 4781 1030 4872 59 185 216 350 403 425 136 55 91 53
1737 52 l1525 -2 3 -30z m2617 16 c329 -48 567 -133 774 -274 96 -65 252 -221
312 -312 167 -252 239 -540 218 -880 -28 -475 -295 -898 -701 -1115 l-82 -43
35 -26 c68 -51 203 -188 259 -262 111 -149 195 -346 225 -529 19 -120 19 -334
0 -470 -120 -846 -769 -1361 -1830 -1450 -70 -6 -512 -10 -1055 -10 -1039 0
-1001 -2 -1134 68 -138 72 -252 218 -286 367 -30 128 -43 59 489 2570 276
1298 503 2366 506 2373 7 18 2147 12 2270 -7z m8125 -10 c136 -41 225 -94 331
-200 102 -102 160 -197 193 -311 21 -75 1096 -4816 1096 -4836 0 -13 -46 -15
-407 -12 l-408 3 -69 27 c-136 53 -233 140 -293 264 -31 66 -95 336 -203 857
l-11 57 -877 -2 -876 -3 -153 -444 c-84 -244 -165 -466 -180 -494 -39 -73
-140 -170 -216 -206 -126 -62 -137 -63 -614 -55 -238 4 -433 8 -433 9 0 1 382
1103 850 2449 571 1644 864 2474 892 2529 61 118 181 236 303 299 173 89 231
97 675 94 303 -2 330 -4 400 -25z m-4724 2 c-3 -10 -210 -992 -461 -2183 -250
-1191 -458 -2173 -461 -2182 -5 -17 60 -18 1239 -20 l1244 -3 -169 -479 c-92
-264 -169 -481 -171 -482 -1 -2 -655 -3 -1452 -4 -1338 -2 -1454 0 -1505 15
-100 31 -172 75 -245 149 -77 77 -126 160 -150 251 -36 138 -53 45 450 2391
445 2071 467 2173 506 2251 50 104 136 193 237 246 118 62 143 65 565 66 356
1 378 0 373 -16z m8102 -6865 l3 -98 -10371 0 -10370 0 0 100 0 100 10368 -2
10367 -3 3 -97z m-12158 -1355 l0 -227 43 41 c59 57 101 75 183 81 137 9 242
-54 300 -181 27 -57 29 -71 29 -182 0 -101 -4 -129 -23 -176 -29 -73 -86 -137
-153 -174 -49 -27 -62 -30 -149 -30 -85 0 -100 3 -141 27 -26 15 -58 41 -72
58 -14 16 -28 30 -31 30 -3 0 -6 -25 -6 -55 l0 -55 -61 0 -62 0 7 53 c3 28 6
269 6 535 l0 482 65 0 65 0 0 -227z m5130 0 l0 -227 43 41 c57 57 117 83 193
83 115 0 205 -69 239 -183 12 -39 15 -109 15 -304 l0 -253 -64 0 -64 0 -3 243
c-4 235 -5 243 -29 291 -35 70 -67 91 -140 91 -49 0 -66 -5 -101 -30 -79 -56
-84 -76 -87 -352 l-4 -243 -64 0 -64 0 0 535 0 535 65 0 65 0 0 -227z m2580 0
l0 -227 43 41 c57 57 117 83 193 83 115 0 205 -69 239 -183 12 -39 15 -109 15
-304 l0 -253 -64 0 -64 0 -3 243 c-4 235 -5 243 -29 291 -35 70 -67 91 -140
91 -49 0 -66 -5 -101 -30 -79 -56 -84 -76 -87 -352 l-4 -243 -64 0 -64 0 0
535 0 535 65 0 65 0 0 -227z m2470 -308 l0 -535 -65 0 -65 0 0 535 0 535 65 0
65 0 0 -535z m-11536 474 c80 -17 154 -64 189 -121 35 -57 47 -153 27 -223
-15 -55 -78 -128 -132 -156 l-39 -20 39 -29 c54 -39 83 -104 127 -279 20 -80
41 -153 46 -163 9 -17 4 -18 -60 -18 -57 0 -72 3 -80 18 -5 9 -25 82 -45 162
-56 221 -85 250 -253 258 l-93 4 0 -221 0 -221 -65 0 -65 0 0 500 0 500 23 5
c77 17 304 19 381 4z m7951 -5 c33 -8 64 -19 68 -23 5 -5 1 -33 -8 -64 l-16
-55 -45 19 c-66 29 -172 36 -229 15 -115 -44 -138 -170 -45 -248 21 -18 84
-53 140 -77 117 -50 172 -88 215 -150 27 -38 30 -52 34 -127 3 -75 0 -91 -23
-139 -31 -63 -69 -98 -146 -134 -49 -23 -67 -26 -170 -26 -116 0 -201 17 -244
48 -18 13 -18 18 -6 63 7 27 14 51 16 52 1 2 33 -8 69 -23 78 -31 182 -42 243
-26 89 25 142 104 127 194 -10 54 -72 115 -150 147 -223 88 -295 162 -295 300
0 74 19 123 68 173 66 68 138 95 257 96 45 1 108 -6 140 -15z m-13136 -31 c16
-60 147 -629 167 -722 l18 -85 23 100 c19 80 170 661 189 727 5 15 15 17 77
15 l71 -3 72 -300 c40 -165 83 -352 95 -416 l23 -116 79 311 c43 171 91 358
106 416 l27 105 72 3 71 3 -9 -28 c-5 -15 -61 -212 -125 -438 -64 -225 -125
-440 -136 -477 l-20 -68 -69 0 -69 0 -10 38 c-32 117 -153 631 -168 710 l-17
94 -18 -84 c-10 -46 -59 -235 -110 -420 l-92 -338 -71 0 -71 0 -124 488 c-68
268 -125 495 -128 505 -4 15 4 17 66 17 l71 0 10 -37z m7388 15 c25 -23 31
-74 13 -108 -12 -22 -64 -42 -88 -33 -36 13 -62 46 -62 80 0 71 86 109 137 61z
m2103 -188 l0 -210 245 0 245 0 0 210 0 210 65 0 65 0 0 -505 0 -505 -65 0
-65 0 0 235 0 235 -245 0 -245 0 0 -235 0 -235 -65 0 -65 0 0 505 0 505 65 0
65 0 0 -210z m977 188 c25 -23 31 -74 13 -108 -12 -22 -64 -42 -88 -33 -36 13
-62 46 -62 80 0 71 86 109 137 61z m-8931 -276 c22 -11 55 -37 72 -56 52 -59
60 -111 64 -398 l4 -258 -58 0 -57 0 -7 45 -6 45 -38 -34 c-51 -45 -125 -69
-204 -64 -118 7 -195 76 -204 182 -14 166 111 268 348 285 l85 6 -2 39 c-9
136 -146 174 -335 92 -13 -6 -20 -2 -27 15 -24 65 -23 67 8 84 96 49 278 58
357 17z m714 -37 l0 -65 -49 0 c-83 0 -149 -62 -170 -161 -6 -27 -11 -140 -11
-249 l0 -200 -65 0 -65 0 0 319 c0 175 -3 339 -6 365 l-7 46 62 0 61 0 0 -59
c0 -68 12 -84 30 -41 25 60 104 109 178 110 l42 0 0 -65z m609 39 c32 -16 64
-43 82 -67 53 -73 59 -115 59 -394 l0 -253 -65 0 -65 0 0 203 c0 296 -11 347
-84 401 -21 16 -42 21 -85 21 -73 -1 -130 -35 -163 -98 -22 -40 -23 -55 -26
-284 l-4 -243 -64 0 -64 0 0 328 c0 180 -3 344 -6 365 l-7 37 61 0 c68 0 72
-4 72 -76 l0 -44 37 41 c58 64 112 87 209 88 46 1 72 -5 113 -25z m786 -1 c96
-51 154 -154 163 -289 l5 -84 -257 0 -256 0 0 -26 c0 -77 51 -158 123 -197 35
-18 57 -21 137 -20 59 0 111 7 138 17 47 17 48 16 66 -56 6 -26 4 -28 -51 -45
-42 -13 -91 -18 -178 -18 -105 0 -127 3 -172 24 -63 28 -136 103 -164 168 -27
62 -36 200 -19 274 29 122 106 220 203 258 70 28 203 25 262 -6z m685 -38 l0
-65 -49 0 c-83 0 -149 -62 -170 -161 -6 -27 -11 -140 -11 -249 l0 -200 -65 0
-65 0 0 319 c0 175 -3 339 -6 365 l-7 46 62 0 61 0 0 -59 c0 -68 12 -84 30
-41 25 60 104 109 178 110 l42 0 0 -65z m1717 36 c143 -63 226 -242 193 -421
-23 -127 -94 -221 -206 -272 -70 -33 -227 -33 -296 -1 -70 32 -131 94 -164
166 -27 57 -29 71 -29 182 0 111 2 124 28 177 45 91 115 153 212 185 61 20
198 12 262 -16z m2052 3 c32 -16 64 -43 82 -67 53 -73 59 -115 59 -394 l0
-253 -65 0 -65 0 0 203 c0 296 -11 347 -84 401 -21 16 -42 21 -85 21 -73 -1
-130 -35 -163 -98 -22 -40 -23 -55 -26 -284 l-4 -243 -64 0 -64 0 0 328 c0
180 -3 344 -6 365 l-7 37 61 0 c68 0 72 -4 72 -76 l0 -44 37 41 c58 64 112 87
209 88 46 1 72 -5 113 -25z m689 11 c28 -9 54 -20 57 -25 7 -11 -12 -79 -25
-93 -4 -5 -21 -2 -36 6 -38 20 -114 31 -152 22 -80 -17 -109 -102 -54 -153 16
-15 66 -42 112 -61 50 -20 101 -50 125 -72 118 -109 66 -295 -97 -344 -72 -21
-173 -19 -253 6 l-66 20 7 32 c3 18 10 42 15 54 l8 22 47 -21 c106 -46 226
-32 259 32 38 73 1 123 -135 179 -126 52 -180 112 -180 200 0 96 60 171 160
202 43 13 154 10 208 -6z m2335 -18 c25 -15 54 -38 65 -52 l20 -25 6 23 c3 12
6 34 6 50 0 26 1 27 58 27 l57 0 -3 -357 c-1 -202 -7 -384 -13 -418 -21 -118
-72 -184 -179 -234 -50 -24 -66 -26 -180 -26 -106 1 -134 4 -182 24 -32 12
-58 26 -58 30 0 4 7 28 16 54 l15 46 47 -22 c39 -17 66 -21 158 -22 103 0 113
2 151 27 57 38 85 100 91 202 l4 81 -38 -37 c-115 -110 -299 -105 -408 12 -77
82 -91 123 -91 270 0 114 2 130 26 181 64 136 168 202 310 196 61 -3 86 -9
122 -30z m2776 19 c29 -8 55 -17 58 -20 4 -4 0 -20 -22 -93 -3 -9 -15 -8 -50
4 -72 24 -192 14 -245 -21 -91 -60 -132 -165 -112 -285 13 -76 48 -131 109
-175 54 -38 164 -48 244 -22 28 10 52 16 54 14 8 -11 23 -94 17 -100 -16 -16
-131 -38 -198 -38 -154 0 -273 68 -330 188 -23 47 -29 74 -32 153 -5 112 11
179 58 251 85 129 276 189 449 144z m1508 -15 c143 -63 226 -242 193 -421 -23
-127 -94 -221 -206 -272 -70 -33 -227 -33 -296 -1 -70 32 -131 94 -164 166
-27 57 -29 71 -29 182 0 111 2 124 28 177 45 91 115 153 212 185 61 20 198 12
262 -16z m820 0 c143 -63 226 -242 193 -421 -23 -127 -94 -221 -206 -272 -70
-33 -227 -33 -296 -1 -70 32 -131 94 -164 166 -27 57 -29 71 -29 182 0 111 2
124 28 177 45 91 115 153 212 185 61 20 198 12 262 -16z m-8827 -346 l0 -365
-65 0 -65 0 0 365 0 365 65 0 65 0 0 -365z m3080 0 l0 -365 -65 0 -65 0 0 365
0 365 65 0 65 0 0 -365z"/>
<path d="M11200 21293 c-91 -33 -140 -94 -140 -175 0 -41 104 -314 641 -1675
352 -895 646 -1651 654 -1680 74 -284 -43 -598 -283 -757 -37 -24 -233 -119
-437 -210 -339 -152 -374 -171 -417 -215 -62 -64 -86 -140 -70 -220 22 -106
91 -185 184 -210 24 -6 655 -113 1403 -237 1429 -237 1438 -238 1516 -200 137
65 208 223 162 356 -27 77 -3006 5137 -3048 5177 -44 42 -119 63 -165 46z"/>
<path d="M10090 21221 c-56 -18 -110 -52 -141 -90 -46 -54 -2961 -5152 -2977
-5207 -15 -49 -6 -97 27 -151 43 -69 159 -97 237 -56 31 16 265 303 1140 1394
805 1004 1120 1389 1168 1430 75 64 179 119 276 145 99 28 273 25 370 -5 120
-37 168 -67 504 -311 176 -128 338 -241 360 -251 55 -25 157 -25 212 0 51 23
104 75 130 127 14 28 19 60 19 114 -1 74 -6 90 -492 1398 -541 1457 -510 1384
-618 1438 -59 28 -167 41 -215 25z"/>
<path d="M7915 13085 c-173 -27 -283 -82 -395 -194 -86 -87 -136 -173 -172
-296 -32 -113 -32 -306 0 -418 68 -240 214 -386 449 -448 144 -39 380 -28 566
26 l57 16 0 320 0 319 -205 0 -205 0 0 -50 0 -50 140 0 140 0 -2 -231 -3 -232
-40 -15 c-63 -22 -285 -28 -368 -8 -200 47 -349 201 -393 405 -21 98 -18 262
6 355 27 105 63 169 140 247 75 76 161 122 273 146 97 20 287 13 377 -16 35
-11 65 -19 66 -18 0 1 8 23 17 49 l16 48 -63 19 c-130 40 -260 49 -401 26z"/>
<path d="M12784 13066 c-83 -36 -54 -166 36 -166 57 0 90 31 90 83 -1 48 -15
72 -54 87 -34 12 -34 12 -72 -4z"/>
<path d="M9060 12700 c-212 -40 -339 -189 -371 -437 -9 -72 -9 -103 4 -174 34
-195 133 -311 312 -365 85 -26 262 -23 369 5 44 12 81 23 83 25 2 2 1 22 -3
45 -5 33 -10 41 -23 36 -9 -4 -52 -14 -96 -22 -106 -20 -252 -13 -317 15 -62
27 -134 95 -163 152 -22 44 -45 138 -45 187 l0 23 354 0 c409 0 374 -11 361
109 -16 149 -78 277 -167 341 -71 52 -203 78 -298 60z m154 -92 c26 -8 60 -31
93 -64 55 -55 75 -102 88 -211 l6 -53 -296 0 -295 0 6 43 c21 134 100 242 209
284 40 15 138 16 189 1z"/>
<path d="M9065 12571 c-94 -24 -162 -99 -193 -213 l-10 -38 245 0 246 0 -7 42
c-8 50 -40 124 -64 151 -42 47 -150 75 -217 58z"/>
<path d="M10115 12699 c-240 -40 -389 -231 -389 -499 0 -278 159 -467 419
-495 124 -14 277 38 369 125 99 93 146 216 146 380 0 206 -80 359 -230 439
-97 52 -204 69 -315 50z m207 -111 c120 -51 198 -203 198 -383 -1 -96 -12
-150 -47 -222 -102 -207 -352 -250 -503 -87 -176 191 -129 577 82 685 81 41
182 44 270 7z"/>
<path d="M10120 12561 c-84 -27 -147 -90 -181 -180 -30 -79 -37 -227 -14 -307
85 -298 416 -315 525 -27 27 70 32 210 12 290 -20 78 -81 166 -137 199 -50 29
-155 42 -205 25z"/>
<path d="M11305 12701 c-86 -21 -158 -84 -192 -168 -15 -36 -23 -43 -45 -43
l-28 0 0 100 0 100 -55 0 -55 0 2 -482 3 -483 65 0 65 0 5 315 c5 301 6 317
28 364 51 111 119 164 222 173 l60 6 0 63 c0 70 -3 72 -75 55z"/>
<path d="M11892 12700 c-248 -52 -405 -328 -347 -611 22 -112 58 -183 124
-249 155 -155 391 -156 530 -4 78 85 84 80 79 -83 -3 -135 -4 -139 -37 -201
-38 -69 -70 -99 -147 -134 -42 -20 -65 -23 -164 -22 -98 0 -126 4 -193 27 -42
15 -79 27 -81 27 -9 0 -26 -84 -19 -91 18 -18 130 -49 214 -60 148 -18 300 14
397 84 95 68 140 160 162 329 5 46 10 283 10 530 l0 448 -55 0 -55 0 0 -42 c0
-75 -11 -118 -30 -118 -9 0 -23 12 -31 26 -23 43 -107 112 -157 128 -62 20
-146 27 -200 16z m234 -123 c60 -31 98 -72 131 -145 24 -50 24 -60 21 -230 -3
-175 -3 -178 -33 -231 -55 -100 -144 -151 -264 -151 -161 0 -275 117 -303 309
-25 171 36 352 142 426 88 61 212 70 306 22z"/>
<path d="M11883 12539 c-112 -55 -170 -187 -161 -365 8 -160 77 -266 197 -301
94 -27 186 0 251 73 59 68 65 92 65 274 0 150 -2 169 -22 205 -28 52 -78 100
-125 119 -55 23 -154 21 -205 -5z"/>
<path d="M13465 12703 c-61 -9 -150 -35 -186 -54 -37 -18 -37 -19 -26 -54 8
-26 15 -35 26 -31 9 3 43 15 76 27 86 32 233 33 292 2 80 -43 123 -122 123
-226 l0 -44 -97 -7 c-340 -25 -510 -142 -508 -352 2 -171 157 -287 342 -254
81 14 151 48 203 100 48 48 80 53 80 13 0 -16 3 -45 6 -65 l7 -38 56 0 56 0
-3 307 c-3 351 -10 423 -53 510 -35 72 -82 115 -156 143 -53 20 -182 32 -238
23z m309 -594 c0 -117 -2 -129 -27 -171 -31 -53 -86 -104 -136 -126 -52 -22
-167 -21 -214 2 -115 57 -130 237 -28 329 67 60 212 98 361 93 l45 -1 -1 -126z"/>
<path d="M13595 12184 c-11 -2 -43 -9 -71 -15 -65 -13 -138 -59 -160 -100 -20
-39 -21 -116 -3 -155 53 -109 250 -95 334 25 28 40 30 50 33 147 l4 104 -59
-1 c-32 -1 -67 -3 -78 -5z"/>
<path d="M12755 12678 c-3 -7 -4 -224 -3 -483 l3 -470 68 -3 67 -3 0 486 0
485 -65 0 c-43 0 -67 -4 -70 -12z"/>
<path d="M3752 10570 c-189 -50 -344 -194 -402 -375 -8 -22 -237 -1095 -510
-2385 l-497 -2345 435 -3 c239 -1 436 -1 438 0 1 2 105 495 230 1095 l229
1093 1065 2 1065 3 50 25 c62 30 121 89 146 144 10 23 41 145 69 271 28 127
54 240 57 253 l5 22 -1146 0 c-1122 0 -1146 0 -1146 19 0 16 279 1377 296
1448 l6 23 1142 2 c1136 3 1141 3 1187 24 58 27 114 76 144 128 17 28 42 121
80 296 30 140 55 260 55 267 0 11 -282 13 -1462 12 -1407 0 -1466 -1 -1536
-19z"/>
<path d="M7345 10578 c-8 -25 -967 -4564 -978 -4626 -26 -157 55 -332 195
-422 115 -75 61 -72 1198 -67 896 3 1028 5 1130 21 513 77 868 234 1141 505
251 249 383 554 409 941 21 321 -50 569 -228 803 -94 124 -200 213 -360 303
-57 31 -101 58 -100 59 2 2 50 22 108 45 325 128 559 331 700 605 138 269 174
628 96 938 -82 324 -292 580 -602 735 -154 78 -399 141 -624 161 -177 17
-2079 15 -2085 -1z m1950 -706 c255 -62 419 -210 471 -428 25 -101 22 -286 -5
-389 -35 -132 -74 -199 -170 -296 -121 -120 -240 -179 -473 -231 -88 -20 -127
-22 -715 -25 -530 -4 -623 -2 -623 10 0 15 277 1339 286 1370 6 17 32 18 572
14 539 -4 571 -5 657 -25z m-445 -2086 c120 -21 257 -67 340 -113 99 -55 198
-160 249 -263 53 -109 73 -204 73 -355 0 -253 -73 -445 -226 -600 -117 -119
-251 -195 -439 -249 -180 -52 -242 -56 -931 -56 -468 0 -636 3 -636 11 0 18
341 1633 347 1642 3 5 258 7 567 4 471 -3 576 -6 656 -21z"/>
<path d="M8170 9767 c0 -4 -226 -1085 -235 -1124 l-5 -23 417 0 c583 1 732 14
920 82 195 70 315 191 369 373 29 94 26 289 -5 378 -23 68 -69 138 -119 183
-40 36 -137 81 -227 106 -77 21 -100 22 -597 26 -285 2 -518 1 -518 -1z"/>
<path d="M7726 7663 c-3 -10 -69 -319 -146 -688 -78 -368 -143 -678 -146 -688
-6 -18 14 -19 573 -14 624 5 650 7 833 63 276 85 456 258 522 501 25 96 30
307 9 393 -49 199 -192 338 -411 400 -152 43 -256 50 -757 50 -441 0 -472 -1
-477 -17z"/>
<path d="M16826 10579 c-195 -32 -375 -161 -458 -329 -42 -83 -1672 -4770
-1662 -4779 3 -3 166 -6 362 -6 l357 0 57 27 c77 36 121 70 165 130 30 41 69
144 208 547 l172 496 971 3 c918 2 971 1 976 -15 3 -10 48 -220 101 -468 65
-305 103 -466 120 -501 40 -83 97 -139 183 -181 l76 -38 328 -3 c266 -2 327
-1 323 10 -2 7 -243 1064 -534 2350 -401 1768 -537 2352 -559 2400 -82 179
-250 313 -441 354 -74 15 -657 18 -745 3z m415 -887 c31 -28 34 -41 294 -1158
144 -621 261 -1132 258 -1136 -6 -12 -1513 -10 -1513 1 0 5 176 517 390 1138
434 1252 405 1183 495 1183 35 0 52 -6 76 -28z"/>
<path d="M17156 9544 c-22 -56 -696 -2007 -696 -2015 0 -5 227 -9 591 -9 558
0 590 1 585 18 -3 9 -109 465 -236 1012 -127 547 -232 999 -233 1004 -2 6 -7
1 -11 -10z"/>
<path d="M12100 10560 c-117 -42 -219 -140 -260 -249 -18 -45 -919 -4216 -941
-4356 -26 -160 55 -330 204 -426 112 -72 36 -69 1559 -69 750 0 1369 4 1376 8
7 5 68 166 135 358 l124 349 -1229 3 c-1054 2 -1228 4 -1228 16 0 8 207 996
460 2196 253 1200 460 2184 460 2186 0 2 -136 4 -302 4 -276 -1 -308 -2 -358
-20z"/>
<path d="M8985 2244 c-88 -48 -118 -105 -123 -241 -4 -92 -2 -106 21 -156 34
-75 86 -110 171 -115 142 -9 228 91 228 265 0 73 -4 92 -28 141 -16 31 -46 70
-67 86 -32 26 -48 31 -105 33 -48 2 -76 -1 -97 -13z"/>
<path d="M7263 2543 l-33 -4 0 -186 0 -186 108 5 c86 3 118 9 156 27 92 45
130 153 84 241 -46 89 -150 123 -315 103z"/>
<path d="M3721 1989 c-104 -17 -164 -73 -164 -149 0 -120 149 -164 246 -72 46
43 57 74 57 157 l0 75 -42 -1 c-24 -1 -68 -5 -97 -10z"/>
<path d="M5728 2247 c-20 -12 -46 -34 -57 -49 -20 -24 -51 -98 -51 -119 0 -5
86 -9 190 -9 212 0 199 -5 175 76 -14 49 -48 90 -92 113 -38 19 -124 13 -165
-12z"/>
<path d="M8140 2258 c-84 -29 -144 -134 -145 -258 0 -87 20 -150 63 -201 167
-195 427 9 358 281 -21 80 -48 124 -96 156 -44 29 -127 39 -180 22z"/>
<path d="M13228 2237 c-79 -47 -112 -121 -112 -247 0 -99 23 -159 79 -209 64
-55 135 -64 213 -25 39 19 59 38 80 72 24 42 27 59 31 160 3 105 2 116 -24
167 -35 73 -87 105 -171 105 -43 0 -69 -6 -96 -23z"/>
<path d="M17500 2258 c-84 -29 -144 -134 -145 -258 0 -87 20 -150 63 -201 167
-195 427 9 358 281 -21 80 -48 124 -96 156 -44 29 -127 39 -180 22z"/>
<path d="M18320 2258 c-84 -29 -144 -134 -145 -258 0 -87 20 -150 63 -201 167
-195 427 9 358 281 -21 80 -48 124 -96 156 -44 29 -127 39 -180 22z"/>
</g>
</svg>
